<svg width="19" height="20" viewBox="0 0 19 20" fill="none" xmlns="http://www.w3.org/2000/svg">
<g clip-path="url(#clip0_1_153)">
<path d="M18.9911 2.50386C19.0092 2.39508 18.9986 2.28346 18.9603 2.18005C18.922 2.07663 18.8573 1.98502 18.7728 1.91426C18.6882 1.84349 18.5866 1.79604 18.478 1.7766C18.3695 1.75716 18.2578 1.76639 18.1539 1.80339L0.420534 8.13673C0.303644 8.17841 0.201574 8.25352 0.127006 8.35271C0.0524372 8.45191 0.00865544 8.57083 0.00109909 8.6947C-0.00645726 8.81857 0.0225448 8.94193 0.0845026 9.04946C0.14646 9.15699 0.238644 9.24395 0.349601 9.29953L5.41627 11.8329C5.51612 11.8828 5.62741 11.9055 5.73885 11.8986C5.8503 11.8917 5.95794 11.8555 6.05087 11.7936L10.2562 8.98919L7.73934 12.1381C7.68456 12.2067 7.64463 12.2858 7.62207 12.3706C7.5995 12.4554 7.5948 12.544 7.60826 12.6306C7.62171 12.7173 7.65304 12.8003 7.70024 12.8743C7.74744 12.9482 7.8095 13.0116 7.88247 13.0603L15.4825 18.1269C15.5705 18.1854 15.6717 18.221 15.777 18.2304C15.8823 18.2397 15.9882 18.2226 16.0852 18.1806C16.1821 18.1385 16.267 18.0728 16.3321 17.9896C16.3972 17.9063 16.4404 17.8081 16.4578 17.7039L18.9911 2.50386Z" fill="#008AD1"/>
</g>
<defs>
<clipPath id="clip0_1_153">
<rect width="19" height="19" fill="white" transform="translate(0 0.5)"/>
</clipPath>
</defs>
</svg>
