<svg width="22" height="22" viewBox="0 0 22 22" fill="none" xmlns="http://www.w3.org/2000/svg">
<path d="M16.3442 11.6783C16.0875 11.1558 15.3633 10.7158 14.4008 11.4583C13.09 12.5033 11 12.5033 11 12.5033C11 12.5033 8.91 12.5033 7.59917 11.4583C6.63667 10.7158 5.9125 11.1558 5.65583 11.6783C5.1975 12.595 5.71083 13.0442 6.875 13.7867C7.87417 14.4283 9.24 14.6667 10.12 14.7583L9.38667 15.4917C8.34167 16.5275 7.33333 17.5267 6.64583 18.2233C6.23333 18.645 6.23333 19.3142 6.64583 19.7083L6.77417 19.855C7.18667 20.2675 7.865 20.2675 8.2775 19.855L11 17.1233C12.0542 18.1592 13.0533 19.1583 13.75 19.855C14.1625 20.2675 14.8317 20.2675 15.2533 19.855L15.3725 19.7083C15.7942 19.3142 15.7942 18.645 15.3725 18.2233L12.6408 15.4917L11.9167 14.7492C12.7875 14.6667 14.135 14.4192 15.125 13.7867C16.2892 13.0442 16.8025 12.595 16.3442 11.6783ZM11 4.18916C12.265 4.18916 13.2917 5.21583 13.2917 6.47166C13.2917 7.73666 12.265 8.75416 11 8.75416C9.735 8.75416 8.70833 7.73666 8.70833 6.47166C8.70833 5.21583 9.735 4.18916 11 4.18916ZM11 11.11C13.5667 11.11 15.6383 9.03833 15.6383 6.47166C15.6383 5.2415 15.1497 4.06172 14.2798 3.19186C13.4099 2.32201 12.2302 1.83333 11 1.83333C9.76984 1.83333 8.59006 2.32201 7.7202 3.19186C6.85035 4.06172 6.36167 5.2415 6.36167 6.47166C6.36167 9.03833 8.43333 11.11 11 11.11Z" fill="#008AD1"/>
</svg>
